PathFileType	4	(X/Y/Z)	C:/Users/dbak576/Desktop/Duncan Bakke Modelling Files/H29s1/Static_H29s1.trc	
DataRate	CameraRate	NumFrames	NumMarkers	Units	OrigDataRate	OrigDataStartFrame	OrigNumFrames	
200.00	200.00	4	66	mm	200.00	1	734	
Frame#	Time	LFHD			RFHD			LBHD			RBHD			C7			T10			CLAV			STRN			RBack			LASI			RASI			LPSI			RACR1			RUA1			RElbow			RElbowM			RFA1			RWRR			RWRU			RCAR			LACR1			LUA1			LElbow			LElbowM			LFA1			LWRR			LWRU			LCAR			RTH1			RTH3			RTH2			RLFC			RMFC			RTB1			RTB3			RTB2			RTB4			RLMAL			RCAL			RMT1			RMT5			RToe			LTH1			LTH3			LTH2			LTH4			LLFC			LMFC			LTB1			LTB3			LTB2			LTB4			LLMAL			LCAL			LMT1			LMT5			LToe			RPSI			RMMAL			LMMAL			RTH4			*61			*62			*63			*64			*65			
		X1	Y1	Z1	X2	Y2	Z2	X3	Y3	Z3	X4	Y4	Z4	X5	Y5	Z5	X6	Y6	Z6	X7	Y7	Z7	X8	Y8	Z8	X9	Y9	Z9	X10	Y10	Z10	X11	Y11	Z11	X12	Y12	Z12	X13	Y13	Z13	X14	Y14	Z14	X15	Y15	Z15	X16	Y16	Z16	X17	Y17	Z17	X18	Y18	Z18	X19	Y19	Z19	X20	Y20	Z20	X21	Y21	Z21	X22	Y22	Z22	X23	Y23	Z23	X24	Y24	Z24	X25	Y25	Z25	X26	Y26	Z26	X27	Y27	Z27	X28	Y28	Z28	X29	Y29	Z29	X30	Y30	Z30	X31	Y31	Z31	X32	Y32	Z32	X33	Y33	Z33	X34	Y34	Z34	X35	Y35	Z35	X36	Y36	Z36	X37	Y37	Z37	X38	Y38	Z38	X39	Y39	Z39	X40	Y40	Z40	X41	Y41	Z41	X42	Y42	Z42	X43	Y43	Z43	X44	Y44	Z44	X45	Y45	Z45	X46	Y46	Z46	X47	Y47	Z47	X48	Y48	Z48	X49	Y49	Z49	X50	Y50	Z50	X51	Y51	Z51	X52	Y52	Z52	X53	Y53	Z53	X54	Y54	Z54	X55	Y55	Z55	X56	Y56	Z56	X57	Y57	Z57	X58	Y58	Z58	X59	Y59	Z59	X60	Y60	Z60	X61	Y61	Z61	X62	Y62	Z62	X63	Y63	Z63	X64	Y64	Z64	X65	Y65	Z65	X66	Y66	Z66	

1	0.000	-40.22614	-380.46606	1692.97656	59.37849	-379.80975	1696.44897	-47.76594	-522.13751	1597.18494	99.55685	-507.08609	1610.70764	20.07461	-546.39490	1486.02515	15.56256	-549.00232	1166.47498	21.23262	-343.51596	1447.83911	19.63301	-250.87177	1300.84265	134.22595	-580.87482	1357.22351	-166.24080	-312.80469	1016.60388	205.68687	-312.46371	1017.38495	-32.17794	-564.02240	1041.91528	166.05305	-490.12222	1522.97192	332.63110	-457.12247	1466.17847	464.50864	-390.98013	1448.26453	448.19720	-289.89453	1371.19971	591.71405	-306.18091	1450.50220	653.64685	-195.57587	1496.68860	676.56158	-217.62164	1426.66602	747.37128	-192.74089	1466.07935	-128.73296	-487.99832	1520.52954	-284.49481	-468.41306	1453.15942	-437.76398	-421.27014	1426.13184	-431.23486	-332.54398	1340.75305	-557.01013	-351.89175	1432.13232	-644.73059	-256.30383	1487.27051	-664.87360	-246.37408	1423.09912	-733.58405	-235.52032	1463.59167	238.63702	-408.12122	797.23993	223.49484	-386.15622	626.73761	222.31107	-338.62271	719.79913	221.19698	-396.78680	510.27664	65.32323	-388.42801	501.70718	159.91176	-339.88077	381.38766	157.72322	-375.64914	212.17267	216.15349	-380.71765	301.66772	158.77733	-357.49640	296.45111	191.39018	-469.02374	79.79592	143.19868	-528.03632	48.57419	151.92355	-306.83331	27.33862	250.50508	-366.66019	33.07127	189.82515	-259.28165	30.23580	-202.16264	-372.38989	790.72980	-193.60341	-365.29825	619.06458	-180.80959	-312.07574	708.66382	-197.14526	-369.90579	705.33264	-199.65573	-383.33115	534.00140	-46.23285	-364.49207	505.03973	-151.26712	-322.52368	399.01349	-146.45352	-359.11533	230.22208	-202.62988	-366.03192	317.96997	-147.21793	-337.68085	315.39417	-176.82253	-461.23303	81.34592	-131.51604	-516.79675	46.52686	-137.63205	-302.53650	40.52093	-227.60089	-348.17117	24.18531	-166.23921	-243.83733	26.76231													234.40089	-395.46548	712.37561	23.66597	-581.08594	143.76103	-92.06822	-444.06110	78.36661						 
2	0.005	-40.05321	-380.19925	1692.63599	59.77105	-379.50131	1696.80408	-47.85418	-522.14911	1597.21179	99.70171	-507.10132	1610.76453	20.06518	-546.56079	1486.02686	15.56485	-549.07214	1166.39368	21.23296	-343.53064	1447.76892	19.75462	-250.93025	1300.70496	134.17604	-580.98218	1357.24255	-166.36084	-312.90836	1016.59290	205.89420	-312.79910	1017.43695	-32.12313	-563.92169	1041.88708	165.90683	-490.14267	1523.05103	332.59103	-457.20963	1466.14319	464.60590	-391.04681	1448.33057	448.20322	-289.91620	1371.22046	591.69916	-306.18784	1450.56018	653.62225	-195.55777	1496.76758	676.49408	-217.57135	1426.61829	747.41058	-192.87540	1466.35022	-128.57106	-488.00903	1520.56018	-284.54135	-468.53238	1453.15503	-437.77097	-421.30710	1426.08398	-430.73187	-331.82602	1340.75757	-556.96851	-351.85388	1432.07520	-644.70392	-256.29544	1487.23816	-667.02704	-246.71898	1423.74329	-733.58551	-235.50949	1463.57104	238.61978	-408.16937	797.24585	224.05716	-386.44128	626.80566	222.32658	-338.67233	719.77216	221.25629	-396.77460	510.31314	65.31195	-388.43732	501.69586	159.88696	-339.88007	381.37149	157.71265	-375.64371	212.16507	216.12862	-380.68787	301.61523	158.86292	-357.50537	296.47339	191.40356	-469.01035	79.77686	143.34126	-528.68402	49.62271	151.86191	-306.74969	27.33689	251.48390	-364.74063	34.52798	189.89005	-259.48041	29.84562	-202.15424	-372.38913	790.72845	-193.62477	-365.28278	619.01556	-180.83827	-312.17529	708.65100	-197.14853	-369.91248	705.33209	-199.70819	-383.25650	533.91962	-46.23911	-364.49567	505.02982	-151.33685	-322.47153	398.74548	-146.28006	-359.39697	230.38463	-202.67395	-366.03296	317.91928	-147.27820	-337.54041	315.44977	-176.86447	-461.56619	81.06602	-132.03795	-516.97131	47.43674	-137.74112	-302.76849	39.86484	-228.16911	-348.91415	24.38722	-166.07692	-243.22632	26.90387													234.58482	-395.36331	712.46075	22.53635	-582.68530	144.74028				-11.30241	-385.01389	108.17639			 
3	0.010	-39.99703	-379.98340	1692.44202	60.03353	-379.31616	1696.92896	-47.92389	-522.15973	1597.22791	99.80671	-507.09674	1610.82458	20.06228	-546.67676	1486.01917	15.56357	-549.12708	1166.33545	21.23784	-343.54245	1447.71924	19.84041	-250.96858	1300.64893	134.12225	-581.07642	1357.26111	-166.39342	-312.94882	1016.60382	205.91716	-313.01685	1017.34625	-32.05499	-563.85645	1041.86230	165.84305	-490.15103	1523.07263	332.54556	-457.27658	1466.13354	464.69128	-391.09131	1448.40649	448.20566	-289.95361	1371.26147	591.69299	-306.18134	1450.61780	653.58777	-195.54657	1496.84631	676.42981	-217.51994	1426.58521	747.46887	-192.94603	1466.57898	-128.47435	-488.03720	1520.53687	-284.57541	-468.63330	1453.15100	-437.86224	-421.32065	1426.05713	-430.26053	-331.22876	1340.77405	-556.93390	-351.84879	1432.06738	-644.66870	-256.29083	1487.23987	-668.92517	-247.17883	1424.37366	-733.58875	-235.50688	1463.55310	238.55426	-408.20966	797.24200	224.45938	-386.64603	626.90027	222.34152	-338.70251	719.75641	221.28937	-396.80173	510.29739	65.30728	-388.44269	501.69461	159.86147	-339.87567	381.35941	157.70441	-375.63947	212.16068	216.10565	-380.65851	301.57062	158.92757	-357.50729	296.49112	191.41704	-468.99698	79.75851	143.47130	-529.16083	50.37123	151.83011	-306.68130	27.32923	251.96013	-363.24286	35.27565	189.95482	-259.60278	29.63292	-202.15059	-372.38577	790.72662	-193.63774	-365.26541	618.98602	-180.85945	-312.25455	708.64563	-197.15051	-369.91730	705.33405	-199.73106	-383.18979	533.87512	-46.24851	-364.50287	505.02942	-151.40683	-322.43115	398.51996	-146.16162	-359.55203	230.45305	-202.68753	-366.03387	317.90085	-147.34563	-337.41336	315.50632	-176.86914	-461.83478	80.91742	-132.43817	-517.37457	47.71919	-137.79411	-302.95898	39.49414	-228.41315	-349.36966	24.47393	-165.98055	-242.78606	26.93540	45.48817	-574.26794	1034.02844										234.74872	-395.28522	712.53650				107.28123	-430.92401	77.72848				-91.39379	-443.33881	79.26112 
4	0.015	-40.12662	-379.97339	1692.50830	60.15195	-379.25073	1696.89246	-47.97383	-522.18207	1597.22302	99.88425	-507.10391	1610.87683	20.05496	-546.77686	1486.02319	15.57242	-549.16132	1166.30383	21.24168	-343.56387	1447.68909	19.88612	-251.00031	1300.67078	134.05969	-581.14948	1357.25793	-166.37904	-312.93201	1016.61102	205.77368	-313.07974	1017.16412	-31.98294	-563.81824	1041.82214	165.85123	-490.16171	1523.04077	332.49963	-457.31897	1466.13782	464.75345	-391.11255	1448.50867	448.19821	-289.99371	1371.31067	591.69696	-306.15109	1450.68982	653.53577	-195.52982	1496.97925	676.36505	-217.46855	1426.56824	747.55396	-192.92421	1466.73083	-128.40614	-488.06055	1520.54468	-284.59219	-468.70645	1453.13647	-438.03531	-421.35809	1426.05701	-429.87512	-330.74261	1340.78662	-556.91431	-351.88547	1432.06555	-644.65088	-256.29880	1487.22327	-670.40204	-247.73824	1424.54700	-733.58398	-235.52046	1463.54602	238.52426	-408.23920	797.22186	224.72334	-386.79803	626.99292	222.36797	-338.70007	719.75568	221.31079	-396.81998	510.26520	65.31554	-388.44690	501.70795	159.84778	-339.86911	381.35477	157.70038	-375.63708	212.16103	216.08209	-380.63068	301.54260	158.95825	-357.50647	296.49136	191.43524	-468.98584	79.74818	143.58514	-529.39478	50.68478	151.82881	-306.65353	27.32471	252.29970	-362.25592	35.48082	190.01779	-259.67102	29.51821	-202.14284	-372.37234	790.73230	-193.63864	-365.24258	618.98401	-180.87163	-312.30246	708.64563	-197.16406	-369.91513	705.30792	-199.71684	-383.14282	533.86945	-46.25940	-364.51453	505.04572	-151.46187	-322.41370	398.39917	-146.10304	-359.56558	230.43416	-202.68210	-366.01501	317.91861	-147.38815	-337.31018	315.55148	-176.84019	-462.05490	80.83053	-132.66391	-517.69000	47.93237	-137.79842	-303.11627	39.29686	-228.53429	-349.61929	24.50455	-165.90620	-242.50014	26.91921	45.43611	-574.29340	1033.94397										234.99480	-395.17651	712.60095	22.58861	-582.71338	144.70502									 
